<svg width="123" height="121" viewBox="0 0 123 121" fill="none" xmlns="http://www.w3.org/2000/svg">
<rect x="0.766663" width="121.467" height="120.086" rx="60.0429" fill="#667499"/>
<path d="M32.6415 46.235H64.8553L87.3346 58.1513L82.3223 74.5965C82.1246 75.2482 81.7309 75.8232 81.1948 76.2433C80.6587 76.6633 80.0061 76.9079 79.326 76.9438L38.4822 79.0841L32.6415 46.235Z" fill="#D5E4EF"/>
<path d="M47.0017 100.086C50.0521 100.086 52.5249 97.6131 52.5249 94.5627C52.5249 91.5124 50.0521 89.0396 47.0017 89.0396C43.9513 89.0396 41.4785 91.5124 41.4785 94.5627C41.4785 97.6131 43.9513 100.086 47.0017 100.086Z" fill="#262A33"/>
<path d="M71.8559 100.086C74.9063 100.086 77.3791 97.6131 77.3791 94.5627C77.3791 91.5124 74.9063 89.0396 71.8559 89.0396C68.8056 89.0396 66.3328 91.5124 66.3328 94.5627C66.3328 97.6131 68.8056 100.086 71.8559 100.086Z" fill="#262A33"/>
<path d="M82.9023 58.6622C93.5785 58.6622 102.233 50.0073 102.233 39.3311C102.233 28.6548 93.5785 20 82.9023 20C72.226 20 63.5712 28.6548 63.5712 39.3311C63.5712 50.0073 72.226 58.6622 82.9023 58.6622Z" fill="#19CC61"/>
<path d="M60.8096 57.2814H42.8593C42.4931 57.2814 42.1419 57.1359 41.883 56.8769C41.624 56.618 41.4785 56.2668 41.4785 55.9006C41.4785 55.5344 41.624 55.1831 41.883 54.9242C42.1419 54.6653 42.4931 54.5198 42.8593 54.5198H60.8096C61.1758 54.5198 61.527 54.6653 61.786 54.9242C62.0449 55.1831 62.1904 55.5344 62.1904 55.9006C62.1904 56.2668 62.0449 56.618 61.786 56.8769C61.527 57.1359 61.1758 57.2814 60.8096 57.2814ZM75.9983 68.3277H44.2401C43.8739 68.3277 43.5227 68.1822 43.2637 67.9233C43.0048 67.6643 42.8593 67.3131 42.8593 66.9469C42.8593 66.5807 43.0048 66.2295 43.2637 65.9705C43.5227 65.7116 43.8739 65.5661 44.2401 65.5661H75.9983C76.3645 65.5661 76.7157 65.7116 76.9747 65.9705C77.2336 66.2295 77.3791 66.5807 77.3791 66.9469C77.3791 67.3131 77.2336 67.6643 76.9747 67.9233C76.7157 68.1822 76.3645 68.3277 75.9983 68.3277Z" fill="#B9C9D6"/>
<path d="M80.1407 48.9967C79.7745 48.9966 79.4233 48.851 79.1645 48.5921L73.6413 43.0689C73.3898 42.8085 73.2506 42.4597 73.2537 42.0977C73.2569 41.7356 73.4021 41.3893 73.6581 41.1333C73.9141 40.8773 74.2604 40.7321 74.6225 40.7289C74.9845 40.7258 75.3333 40.865 75.5937 41.1165L79.9267 45.4494L90.0382 30.28C90.1388 30.1292 90.2682 29.9996 90.4189 29.8987C90.5696 29.7979 90.7387 29.7277 90.9166 29.6921C91.0944 29.6566 91.2775 29.6565 91.4554 29.6917C91.6333 29.727 91.8025 29.7969 91.9534 29.8976C92.1042 29.9982 92.2338 30.1276 92.3347 30.2783C92.4355 30.429 92.5057 30.5981 92.5412 30.7759C92.5768 30.9538 92.5769 31.1368 92.5416 31.3147C92.5064 31.4926 92.4365 31.6618 92.3358 31.8127L81.2895 48.3822C81.1771 48.5531 81.0281 48.6969 80.8533 48.8031C80.6785 48.9094 80.4822 48.9755 80.2788 48.9967H80.1407Z" fill="white"/>
<path d="M81.5215 90.4204L37.6731 90.4107C36.8747 90.41 36.0911 90.1956 35.4036 89.7899C34.716 89.3841 34.1495 88.8018 33.763 88.1033C33.3764 87.4048 33.1837 86.6156 33.2051 85.8175C33.2264 85.0194 33.4609 84.2416 33.8842 83.5648L37.0793 78.7127C36.8239 77.6398 36.5146 75.9083 36.0189 73.1191L30.2403 40.7119H22.1475C21.7812 40.7119 21.43 40.5664 21.1711 40.3075C20.9121 40.0485 20.7667 39.6973 20.7667 39.3311C20.7667 38.9649 20.9121 38.6137 21.1711 38.3547C21.43 38.0958 21.7812 37.9503 22.1475 37.9503H31.3988C31.723 37.9501 32.0369 38.064 32.2856 38.272C32.5342 38.4801 32.7018 38.7689 32.7588 39.0881C32.7588 39.0881 39.7746 78.4807 39.8395 78.8383C39.9026 79.1887 39.8289 79.5499 39.6338 79.8477L36.2039 85.056C36.0484 85.3161 35.9646 85.6127 35.9611 85.9157C35.9576 86.2187 36.0345 86.5173 36.1839 86.7809C36.3334 87.0445 36.5501 87.2637 36.812 87.4162C37.0738 87.5688 37.3714 87.6491 37.6745 87.6491L81.5215 87.6588C81.8877 87.6588 82.2389 87.8043 82.4978 88.0632C82.7568 88.3222 82.9023 88.6734 82.9023 89.0396C82.9023 89.4058 82.7568 89.757 82.4978 90.016C82.2389 90.2749 81.8877 90.4204 81.5215 90.4204Z" fill="#B9C9D6"/>
</svg>
