<svg width="220" height="251" viewBox="0 0 220 251" fill="none" xmlns="http://www.w3.org/2000/svg">
<path fill-rule="evenodd" clip-rule="evenodd" d="M150.514 250.79V243.167H212.378V156.786H220V250.79H150.514Z" fill="#E60D54"/>
<path fill-rule="evenodd" clip-rule="evenodd" d="M69.461 0V7.59688H7.59688V93.9785H0V0H69.461Z" fill="#E60D54"/>
<path fill-rule="evenodd" clip-rule="evenodd" d="M194.745 37.6073C201.568 37.6073 207.098 32.0768 207.098 25.2546C207.098 18.4324 201.568 12.9019 194.745 12.9019C187.923 12.9019 182.393 18.4324 182.393 25.2546C182.393 32.0768 187.923 37.6073 194.745 37.6073ZM194.745 43.9273C205.058 43.9273 213.418 35.5673 213.418 25.2546C213.418 14.942 205.058 6.58191 194.745 6.58191C184.433 6.58191 176.073 14.942 176.073 25.2546C176.073 35.5673 184.433 43.9273 194.745 43.9273Z" fill="#E60D54"/>
<path d="M199.485 15.7746H189.431C187.451 15.7746 185.84 17.3855 185.84 19.3655V29.4201C185.84 29.8172 186.162 30.1382 186.558 30.1382C186.955 30.1382 187.276 29.8172 187.276 29.4201V27.9837H201.64V29.4201C201.64 29.8172 201.961 30.1382 202.358 30.1382C202.755 30.1382 203.076 29.8172 203.076 29.4201V19.3655C203.076 17.3855 201.465 15.7746 199.485 15.7746ZM189.431 17.211H199.485C200.673 17.211 201.64 18.1777 201.64 19.3655V23.6746H200.204C200.204 22.0903 198.915 20.8019 197.331 20.8019H196.613C195.755 20.8019 194.985 21.1797 194.458 21.7765C193.931 21.1789 193.161 20.8019 192.304 20.8019H191.585C190.001 20.8019 188.713 22.0903 188.713 23.6746H187.276V19.3655C187.276 18.1777 188.243 17.211 189.431 17.211ZM195.176 23.6746C195.176 22.8825 195.821 22.2383 196.613 22.2383H197.331C198.123 22.2383 198.767 22.8825 198.767 23.6746H195.176ZM190.149 23.6746C190.149 22.8825 190.793 22.2383 191.585 22.2383H192.304C193.096 22.2383 193.74 22.8825 193.74 23.6746H190.149ZM187.276 26.5473V25.111H201.64V26.5473H187.276Z" fill="#E60D54"/>
<path d="M186.652 33.5855V33.1399L187.693 32.1759C187.781 32.0902 187.856 32.0131 187.916 31.9445C187.977 31.876 188.023 31.8088 188.054 31.7431C188.086 31.6765 188.101 31.6046 188.101 31.5275C188.101 31.4418 188.082 31.368 188.043 31.3061C188.004 31.2433 187.95 31.1952 187.883 31.1619C187.815 31.1276 187.739 31.1104 187.653 31.1104C187.563 31.1104 187.485 31.1285 187.419 31.1647C187.352 31.2009 187.301 31.2528 187.264 31.3204C187.228 31.388 187.21 31.4684 187.21 31.5618H186.623C186.623 31.3704 186.666 31.2042 186.753 31.0633C186.84 30.9224 186.961 30.8134 187.117 30.7362C187.273 30.6591 187.453 30.6206 187.657 30.6206C187.867 30.6206 188.049 30.6577 188.204 30.732C188.36 30.8053 188.482 30.9072 188.568 31.0376C188.655 31.168 188.698 31.3175 188.698 31.4861C188.698 31.5965 188.676 31.7055 188.633 31.8131C188.59 31.9207 188.513 32.0402 188.403 32.1716C188.292 32.302 188.136 32.4587 187.936 32.6415L187.509 33.0599V33.0799H188.737V33.5855H186.652Z" fill="#E60D54"/>
<path d="M190.121 34.4082V31.3918H190.721V31.7603H190.748C190.775 31.7012 190.814 31.6413 190.864 31.5803C190.916 31.5184 190.982 31.467 191.064 31.4261C191.147 31.3842 191.25 31.3632 191.373 31.3632C191.533 31.3632 191.68 31.4051 191.815 31.4889C191.951 31.5717 192.059 31.697 192.14 31.8645C192.22 32.0312 192.261 32.2401 192.261 32.4915C192.261 32.7362 192.221 32.9428 192.142 33.1113C192.064 33.2789 191.958 33.406 191.822 33.4927C191.688 33.5784 191.538 33.6212 191.371 33.6212C191.253 33.6212 191.153 33.6017 191.07 33.5627C190.988 33.5236 190.921 33.4746 190.868 33.4156C190.816 33.3556 190.776 33.2951 190.748 33.2342H190.73V34.4082H190.121ZM190.717 32.4887C190.717 32.6191 190.735 32.7329 190.771 32.83C190.807 32.9271 190.86 33.0028 190.928 33.0571C190.997 33.1104 191.08 33.1371 191.178 33.1371C191.277 33.1371 191.361 33.1099 191.43 33.0556C191.498 33.0004 191.55 32.9243 191.585 32.8271C191.622 32.7291 191.64 32.6162 191.64 32.4887C191.64 32.362 191.622 32.2506 191.587 32.1545C191.552 32.0583 191.5 31.9831 191.431 31.9288C191.363 31.8745 191.278 31.8474 191.178 31.8474C191.079 31.8474 190.996 31.8736 190.927 31.9259C190.859 31.9783 190.807 32.0526 190.771 32.1487C190.735 32.2449 190.717 32.3582 190.717 32.4887Z" fill="#E60D54"/>
<path d="M193.275 30.6606V33.5855H192.667V30.6606H193.275Z" fill="#E60D54"/>
<path d="M194.388 33.6269C194.248 33.6269 194.123 33.6026 194.014 33.5541C193.904 33.5046 193.818 33.4317 193.754 33.3356C193.691 33.2385 193.659 33.1175 193.659 32.9728C193.659 32.8509 193.682 32.7486 193.727 32.6658C193.771 32.5829 193.832 32.5163 193.909 32.4658C193.987 32.4153 194.074 32.3773 194.172 32.3515C194.271 32.3258 194.375 32.3077 194.484 32.2973C194.611 32.2839 194.714 32.2716 194.792 32.2601C194.87 32.2478 194.927 32.2297 194.962 32.2059C194.997 32.1821 195.015 32.1468 195.015 32.1002V32.0916C195.015 32.0012 194.986 31.9312 194.929 31.8817C194.873 31.8322 194.793 31.8074 194.689 31.8074C194.58 31.8074 194.493 31.8317 194.428 31.8802C194.363 31.9278 194.32 31.9878 194.299 32.0602L193.737 32.0145C193.765 31.8812 193.821 31.766 193.905 31.6689C193.989 31.5708 194.097 31.4956 194.229 31.4432C194.363 31.3899 194.517 31.3632 194.692 31.3632C194.814 31.3632 194.931 31.3775 195.042 31.4061C195.154 31.4346 195.254 31.4789 195.34 31.5389C195.428 31.5989 195.497 31.676 195.548 31.7703C195.598 31.8636 195.623 31.9755 195.623 32.1059V33.5855H195.046V33.2813H195.029C194.994 33.3499 194.947 33.4103 194.888 33.4627C194.829 33.5141 194.758 33.5546 194.675 33.5841C194.592 33.6126 194.496 33.6269 194.388 33.6269ZM194.562 33.207C194.652 33.207 194.731 33.1894 194.799 33.1542C194.868 33.118 194.922 33.0695 194.961 33.0085C195 32.9476 195.019 32.8786 195.019 32.8014V32.5686C195 32.581 194.974 32.5924 194.941 32.6029C194.908 32.6124 194.872 32.6215 194.831 32.63C194.79 32.6377 194.749 32.6448 194.708 32.6515C194.667 32.6572 194.63 32.6624 194.596 32.6672C194.525 32.6777 194.463 32.6943 194.409 32.7172C194.356 32.74 194.315 32.771 194.285 32.81C194.255 32.8481 194.241 32.8957 194.241 32.9528C194.241 33.0357 194.271 33.099 194.331 33.1428C194.392 33.1856 194.469 33.207 194.562 33.207Z" fill="#E60D54"/>
<path d="M197.086 33.6284C196.862 33.6284 196.668 33.5807 196.507 33.4855C196.346 33.3894 196.222 33.2561 196.135 33.0856C196.05 32.9152 196.007 32.7191 196.007 32.4972C196.007 32.2725 196.05 32.0754 196.137 31.9059C196.224 31.7355 196.349 31.6027 196.509 31.5075C196.67 31.4113 196.862 31.3632 197.084 31.3632C197.275 31.3632 197.443 31.398 197.586 31.4675C197.73 31.537 197.844 31.6346 197.928 31.7603C198.011 31.886 198.058 32.0335 198.066 32.203H197.492C197.476 32.0935 197.433 32.0054 197.364 31.9388C197.295 31.8712 197.205 31.8374 197.094 31.8374C196.999 31.8374 196.917 31.8631 196.846 31.9145C196.777 31.965 196.723 32.0388 196.684 32.1359C196.645 32.233 196.625 32.3506 196.625 32.4887C196.625 32.6286 196.644 32.7476 196.682 32.8457C196.721 32.9438 196.776 33.0185 196.846 33.0699C196.917 33.1213 196.999 33.1471 197.094 33.1471C197.163 33.1471 197.225 33.1328 197.281 33.1042C197.337 33.0756 197.383 33.0342 197.419 32.98C197.456 32.9247 197.481 32.8586 197.492 32.7814H198.066C198.057 32.949 198.011 33.0966 197.929 33.2242C197.848 33.3508 197.736 33.4498 197.593 33.5212C197.451 33.5927 197.282 33.6284 197.086 33.6284Z" fill="#E60D54"/>
<path d="M199.455 33.6284C199.23 33.6284 199.036 33.5827 198.873 33.4913C198.711 33.3989 198.586 33.2685 198.499 33.0999C198.411 32.9304 198.367 32.73 198.367 32.4987C198.367 32.273 198.411 32.075 198.499 31.9045C198.586 31.7341 198.709 31.6013 198.868 31.5061C199.028 31.4108 199.216 31.3632 199.431 31.3632C199.576 31.3632 199.711 31.3866 199.835 31.4332C199.961 31.4789 200.071 31.5479 200.164 31.6403C200.258 31.7327 200.331 31.8488 200.384 31.9888C200.436 32.1278 200.462 32.2906 200.462 32.4772V32.6443H198.61V32.2673H199.89C199.89 32.1797 199.871 32.1021 199.833 32.0345C199.794 31.9669 199.742 31.914 199.674 31.876C199.607 31.8369 199.53 31.8174 199.441 31.8174C199.349 31.8174 199.267 31.8388 199.196 31.8817C199.125 31.9236 199.07 31.9802 199.03 32.0516C198.99 32.1221 198.969 32.2006 198.968 32.2873V32.6458C198.968 32.7543 198.988 32.8481 199.028 32.9271C199.069 33.0061 199.127 33.0671 199.201 33.1099C199.276 33.1528 199.364 33.1742 199.465 33.1742C199.533 33.1742 199.595 33.1647 199.651 33.1456C199.707 33.1266 199.755 33.098 199.795 33.0599C199.835 33.0218 199.866 32.9752 199.887 32.92L200.449 32.9571C200.421 33.0923 200.362 33.2104 200.274 33.3113C200.186 33.4113 200.073 33.4893 199.934 33.5455C199.796 33.6007 199.636 33.6284 199.455 33.6284Z" fill="#E60D54"/>
<path d="M202.685 32.0173L202.128 32.0516C202.118 32.004 202.098 31.9612 202.066 31.9231C202.035 31.884 201.993 31.8531 201.942 31.8303C201.891 31.8064 201.831 31.7945 201.761 31.7945C201.666 31.7945 201.587 31.8145 201.522 31.8545C201.457 31.8936 201.425 31.9459 201.425 32.0116C201.425 32.064 201.446 32.1083 201.488 32.1445C201.53 32.1806 201.602 32.2097 201.703 32.2316L202.1 32.3116C202.314 32.3554 202.473 32.4258 202.578 32.5229C202.682 32.62 202.735 32.7476 202.735 32.9057C202.735 33.0495 202.692 33.1756 202.607 33.2842C202.524 33.3927 202.409 33.4774 202.262 33.5384C202.116 33.5984 201.948 33.6284 201.758 33.6284C201.467 33.6284 201.236 33.5679 201.064 33.447C200.892 33.3251 200.792 33.1594 200.762 32.95L201.361 32.9185C201.379 33.0071 201.423 33.0747 201.492 33.1213C201.562 33.167 201.651 33.1899 201.759 33.1899C201.866 33.1899 201.951 33.1694 202.016 33.1285C202.082 33.0866 202.115 33.0328 202.116 32.9671C202.115 32.9119 202.092 32.8666 202.046 32.8314C202.001 32.7952 201.93 32.7676 201.835 32.7486L201.455 32.6729C201.241 32.63 201.081 32.5558 200.976 32.4501C200.873 32.3444 200.821 32.2097 200.821 32.0459C200.821 31.905 200.859 31.7836 200.935 31.6817C201.012 31.5798 201.12 31.5013 201.259 31.4461C201.399 31.3908 201.563 31.3632 201.751 31.3632C202.028 31.3632 202.246 31.4218 202.405 31.5389C202.565 31.656 202.658 31.8155 202.685 32.0173Z" fill="#E60D54"/>
<path d="M0 223H60H90H111L120 251H0V223Z" fill="#E60D54"/>
<path d="M13 243.44V241.24H7V239.24L10 230.24H13.08L9.74 238.94H13L13.16 235.54L15.72 235.5V238.94H16.94V241.24H15.72V243.44H13Z" fill="white"/>
<path d="M18.6533 243.44V241.28L21.6733 238.18C22.2466 237.593 22.7399 237.08 23.1533 236.64C23.5666 236.187 23.8799 235.76 24.0933 235.36C24.32 234.96 24.4333 234.533 24.4333 234.08C24.4333 233.413 24.2466 232.967 23.8733 232.74C23.4999 232.5 22.8999 232.38 22.0733 232.38C21.7399 232.38 21.3733 232.4 20.9733 232.44C20.5733 232.48 20.1866 232.527 19.8133 232.58C19.4533 232.633 19.1399 232.687 18.8733 232.74L18.7333 230.62C19.0266 230.54 19.3866 230.453 19.8133 230.36C20.2533 230.267 20.7266 230.187 21.2333 230.12C21.7533 230.04 22.2599 230 22.7533 230C24.1933 230 25.2933 230.307 26.0533 230.92C26.8133 231.52 27.1933 232.453 27.1933 233.72C27.1933 234.413 27.0933 235.027 26.8933 235.56C26.7066 236.093 26.4066 236.607 25.9933 237.1C25.5933 237.58 25.0599 238.107 24.3933 238.68L21.7533 241.2H27.3733V243.44H18.6533Z" fill="white"/>
<path d="M38.602 243.44V233.2L35.482 235L34.562 233.02L38.942 230.24H41.322V243.44H38.602Z" fill="white"/>
<path d="M49.6953 243.66C49.1886 243.66 48.642 243.62 48.0553 243.54C47.4686 243.473 46.902 243.387 46.3553 243.28C45.8086 243.173 45.342 243.08 44.9553 243L45.1953 240.96C45.5553 241.013 45.982 241.08 46.4753 241.16C46.9686 241.227 47.4753 241.28 47.9953 241.32C48.5153 241.36 48.9886 241.38 49.4153 241.38C50.0953 241.38 50.6353 241.207 51.0353 240.86C51.4353 240.5 51.6353 239.98 51.6353 239.3C51.6353 238.833 51.5486 238.467 51.3753 238.2C51.2153 237.933 50.9753 237.747 50.6553 237.64C50.3486 237.52 49.9886 237.46 49.5753 237.46C49.2553 237.46 48.9353 237.493 48.6153 237.56C48.2953 237.613 47.9953 237.687 47.7153 237.78C47.4353 237.86 47.2086 237.947 47.0353 238.04L45.2353 237.76L45.5553 230.24H53.8153V232.66H47.7153L47.4553 235.6C47.642 235.52 47.8753 235.44 48.1553 235.36C48.4353 235.267 48.7353 235.187 49.0553 235.12C49.3886 235.053 49.7086 235.02 50.0153 235.02C50.9353 235.02 51.7153 235.147 52.3553 235.4C52.9953 235.653 53.482 236.073 53.8153 236.66C54.162 237.247 54.3353 238.047 54.3353 239.06C54.3353 240.113 54.142 240.98 53.7553 241.66C53.382 242.327 52.8486 242.827 52.1553 243.16C51.4753 243.493 50.6553 243.66 49.6953 243.66Z" fill="white"/>
<path d="M56.3486 243.44V241.28L59.3686 238.18C59.9419 237.593 60.4353 237.08 60.8486 236.64C61.2619 236.187 61.5753 235.76 61.7886 235.36C62.0153 234.96 62.1286 234.533 62.1286 234.08C62.1286 233.413 61.9419 232.967 61.5686 232.74C61.1953 232.5 60.5953 232.38 59.7686 232.38C59.4353 232.38 59.0686 232.4 58.6686 232.44C58.2686 232.48 57.8819 232.527 57.5086 232.58C57.1486 232.633 56.8353 232.687 56.5686 232.74L56.4286 230.62C56.7219 230.54 57.0819 230.453 57.5086 230.36C57.9486 230.267 58.4219 230.187 58.9286 230.12C59.4486 230.04 59.9553 230 60.4486 230C61.8886 230 62.9886 230.307 63.7486 230.92C64.5086 231.52 64.8886 232.453 64.8886 233.72C64.8886 234.413 64.7886 235.027 64.5886 235.56C64.4019 236.093 64.1019 236.607 63.6886 237.1C63.2886 237.58 62.7553 238.107 62.0886 238.68L59.4486 241.2H65.0686V243.44H56.3486Z" fill="white"/>
<path d="M76.2973 243.44V233.2L73.1773 235L72.2573 233.02L76.6373 230.24H79.0173V243.44H76.2973Z" fill="white"/>
<path d="M87.4506 243.66C85.7306 243.66 84.4706 243.067 83.6706 241.88C82.8706 240.693 82.4706 239.02 82.4706 236.86C82.4706 235.58 82.5973 234.507 82.8506 233.64C83.1173 232.76 83.484 232.06 83.9506 231.54C84.4306 231.007 84.9973 230.62 85.6506 230.38C86.304 230.14 87.024 230.02 87.8106 230.02C88.224 230.02 88.6706 230.047 89.1506 230.1C89.644 230.153 90.124 230.22 90.5906 230.3C91.0573 230.367 91.4506 230.433 91.7706 230.5L91.5506 232.56C91.2706 232.533 90.9173 232.5 90.4906 232.46C90.0773 232.42 89.644 232.387 89.1906 232.36C88.7373 232.32 88.304 232.3 87.8906 232.3C86.984 232.3 86.304 232.587 85.8506 233.16C85.3973 233.72 85.1573 234.527 85.1306 235.58C85.264 235.54 85.4306 235.493 85.6306 235.44C85.844 235.373 86.0706 235.307 86.3106 235.24C86.564 235.16 86.8173 235.1 87.0706 235.06C87.324 235.007 87.564 234.98 87.7906 234.98C89.2706 234.98 90.3773 235.327 91.1106 236.02C91.8573 236.7 92.2306 237.773 92.2306 239.24C92.2306 240.227 92.0373 241.047 91.6506 241.7C91.264 242.353 90.7173 242.847 90.0106 243.18C89.304 243.5 88.4506 243.66 87.4506 243.66ZM87.4506 241.42C88.184 241.42 88.7306 241.233 89.0906 240.86C89.464 240.473 89.6506 239.933 89.6506 239.24C89.6506 238.547 89.464 238.04 89.0906 237.72C88.7173 237.387 88.1906 237.22 87.5106 237.22C87.2306 237.22 86.9373 237.247 86.6306 237.3C86.324 237.353 86.0373 237.427 85.7706 237.52C85.504 237.6 85.284 237.68 85.1106 237.76C85.124 238.467 85.204 239.1 85.3506 239.66C85.4973 240.207 85.7373 240.64 86.0706 240.96C86.4173 241.267 86.8773 241.42 87.4506 241.42Z" fill="white"/>
<path d="M98.4239 243.66C97.5706 243.66 96.8306 243.547 96.2039 243.32C95.5772 243.08 95.0572 242.7 94.6439 242.18C94.2439 241.647 93.9372 240.953 93.7239 240.1C93.5239 239.247 93.4239 238.2 93.4239 236.96C93.4239 235.68 93.5239 234.593 93.7239 233.7C93.9372 232.807 94.2506 232.093 94.6639 231.56C95.0772 231.013 95.5906 230.62 96.2039 230.38C96.8306 230.14 97.5639 230.02 98.4039 230.02C99.2706 230.02 100.017 230.14 100.644 230.38C101.271 230.62 101.784 231.013 102.184 231.56C102.597 232.093 102.897 232.807 103.084 233.7C103.284 234.58 103.384 235.667 103.384 236.96C103.384 238.6 103.204 239.913 102.844 240.9C102.497 241.873 101.957 242.58 101.224 243.02C100.491 243.447 99.5572 243.66 98.4239 243.66ZM98.4239 241.34C98.7972 241.34 99.1172 241.28 99.3839 241.16C99.6639 241.027 99.8972 240.8 100.084 240.48C100.271 240.16 100.404 239.713 100.484 239.14C100.577 238.567 100.624 237.84 100.624 236.96C100.624 236.027 100.577 235.26 100.484 234.66C100.404 234.06 100.277 233.593 100.104 233.26C99.9306 232.913 99.7039 232.673 99.4239 232.54C99.1439 232.393 98.8106 232.32 98.4239 232.32C98.0372 232.32 97.7039 232.393 97.4239 232.54C97.1439 232.673 96.9106 232.907 96.7239 233.24C96.5506 233.573 96.4172 234.047 96.3239 234.66C96.2306 235.26 96.1839 236.033 96.1839 236.98C96.1839 237.86 96.2306 238.587 96.3239 239.16C96.4306 239.733 96.5772 240.18 96.7639 240.5C96.9506 240.807 97.1772 241.027 97.4439 241.16C97.7239 241.28 98.0506 241.34 98.4239 241.34Z" fill="white"/>
</svg>
