<svg width="220" height="251" viewBox="0 0 220 251" fill="none" xmlns="http://www.w3.org/2000/svg">
<g clip-path="url(#clip0_448_389)">
<path fill-rule="evenodd" clip-rule="evenodd" d="M150.514 250.79V243.167H212.378V156.786H220V250.79H150.514Z" fill="#E60D54"/>
<path fill-rule="evenodd" clip-rule="evenodd" d="M69.461 0V7.59688H7.59688V93.9785H0V0H69.461Z" fill="#E60D54"/>
<path d="M0 223H60H90H111L120 251H0V223Z" fill="#E60D54"/>
<path d="M13 243.44V241.24H7V239.24L10 230.24H13.08L9.74 238.94H13L13.16 235.54L15.72 235.5V238.94H16.94V241.24H15.72V243.44H13Z" fill="white"/>
<path d="M18.6533 243.44V241.28L21.6733 238.18C22.2466 237.593 22.7399 237.08 23.1533 236.64C23.5666 236.187 23.8799 235.76 24.0933 235.36C24.32 234.96 24.4333 234.533 24.4333 234.08C24.4333 233.413 24.2466 232.967 23.8733 232.74C23.4999 232.5 22.8999 232.38 22.0733 232.38C21.7399 232.38 21.3733 232.4 20.9733 232.44C20.5733 232.48 20.1866 232.527 19.8133 232.58C19.4533 232.633 19.1399 232.687 18.8733 232.74L18.7333 230.62C19.0266 230.54 19.3866 230.453 19.8133 230.36C20.2533 230.267 20.7266 230.187 21.2333 230.12C21.7533 230.04 22.2599 230 22.7533 230C24.1933 230 25.2933 230.307 26.0533 230.92C26.8133 231.52 27.1933 232.453 27.1933 233.72C27.1933 234.413 27.0933 235.027 26.8933 235.56C26.7066 236.093 26.4066 236.607 25.9933 237.1C25.5933 237.58 25.0599 238.107 24.3933 238.68L21.7533 241.2H27.3733V243.44H18.6533Z" fill="white"/>
<path d="M38.602 243.44V233.2L35.482 235L34.562 233.02L38.942 230.24H41.322V243.44H38.602Z" fill="white"/>
<path d="M49.6953 243.66C49.1886 243.66 48.642 243.62 48.0553 243.54C47.4686 243.473 46.902 243.387 46.3553 243.28C45.8086 243.173 45.342 243.08 44.9553 243L45.1953 240.96C45.5553 241.013 45.982 241.08 46.4753 241.16C46.9686 241.227 47.4753 241.28 47.9953 241.32C48.5153 241.36 48.9886 241.38 49.4153 241.38C50.0953 241.38 50.6353 241.207 51.0353 240.86C51.4353 240.5 51.6353 239.98 51.6353 239.3C51.6353 238.833 51.5486 238.467 51.3753 238.2C51.2153 237.933 50.9753 237.747 50.6553 237.64C50.3486 237.52 49.9886 237.46 49.5753 237.46C49.2553 237.46 48.9353 237.493 48.6153 237.56C48.2953 237.613 47.9953 237.687 47.7153 237.78C47.4353 237.86 47.2086 237.947 47.0353 238.04L45.2353 237.76L45.5553 230.24H53.8153V232.66H47.7153L47.4553 235.6C47.642 235.52 47.8753 235.44 48.1553 235.36C48.4353 235.267 48.7353 235.187 49.0553 235.12C49.3886 235.053 49.7086 235.02 50.0153 235.02C50.9353 235.02 51.7153 235.147 52.3553 235.4C52.9953 235.653 53.482 236.073 53.8153 236.66C54.162 237.247 54.3353 238.047 54.3353 239.06C54.3353 240.113 54.142 240.98 53.7553 241.66C53.382 242.327 52.8486 242.827 52.1553 243.16C51.4753 243.493 50.6553 243.66 49.6953 243.66Z" fill="white"/>
<path d="M56.3486 243.44V241.28L59.3686 238.18C59.9419 237.593 60.4353 237.08 60.8486 236.64C61.2619 236.187 61.5753 235.76 61.7886 235.36C62.0153 234.96 62.1286 234.533 62.1286 234.08C62.1286 233.413 61.9419 232.967 61.5686 232.74C61.1953 232.5 60.5953 232.38 59.7686 232.38C59.4353 232.38 59.0686 232.4 58.6686 232.44C58.2686 232.48 57.8819 232.527 57.5086 232.58C57.1486 232.633 56.8353 232.687 56.5686 232.74L56.4286 230.62C56.7219 230.54 57.0819 230.453 57.5086 230.36C57.9486 230.267 58.4219 230.187 58.9286 230.12C59.4486 230.04 59.9553 230 60.4486 230C61.8886 230 62.9886 230.307 63.7486 230.92C64.5086 231.52 64.8886 232.453 64.8886 233.72C64.8886 234.413 64.7886 235.027 64.5886 235.56C64.4019 236.093 64.1019 236.607 63.6886 237.1C63.2886 237.58 62.7553 238.107 62.0886 238.68L59.4486 241.2H65.0686V243.44H56.3486Z" fill="white"/>
<path d="M76.2973 243.44V233.2L73.1773 235L72.2573 233.02L76.6373 230.24H79.0173V243.44H76.2973Z" fill="white"/>
<path d="M87.4506 243.66C85.7306 243.66 84.4706 243.067 83.6706 241.88C82.8706 240.693 82.4706 239.02 82.4706 236.86C82.4706 235.58 82.5973 234.507 82.8506 233.64C83.1173 232.76 83.484 232.06 83.9506 231.54C84.4306 231.007 84.9973 230.62 85.6506 230.38C86.304 230.14 87.024 230.02 87.8106 230.02C88.224 230.02 88.6706 230.047 89.1506 230.1C89.644 230.153 90.124 230.22 90.5906 230.3C91.0573 230.367 91.4506 230.433 91.7706 230.5L91.5506 232.56C91.2706 232.533 90.9173 232.5 90.4906 232.46C90.0773 232.42 89.644 232.387 89.1906 232.36C88.7373 232.32 88.304 232.3 87.8906 232.3C86.984 232.3 86.304 232.587 85.8506 233.16C85.3973 233.72 85.1573 234.527 85.1306 235.58C85.264 235.54 85.4306 235.493 85.6306 235.44C85.844 235.373 86.0706 235.307 86.3106 235.24C86.564 235.16 86.8173 235.1 87.0706 235.06C87.324 235.007 87.564 234.98 87.7906 234.98C89.2706 234.98 90.3773 235.327 91.1106 236.02C91.8573 236.7 92.2306 237.773 92.2306 239.24C92.2306 240.227 92.0373 241.047 91.6506 241.7C91.264 242.353 90.7173 242.847 90.0106 243.18C89.304 243.5 88.4506 243.66 87.4506 243.66ZM87.4506 241.42C88.184 241.42 88.7306 241.233 89.0906 240.86C89.464 240.473 89.6506 239.933 89.6506 239.24C89.6506 238.547 89.464 238.04 89.0906 237.72C88.7173 237.387 88.1906 237.22 87.5106 237.22C87.2306 237.22 86.9373 237.247 86.6306 237.3C86.324 237.353 86.0373 237.427 85.7706 237.52C85.504 237.6 85.284 237.68 85.1106 237.76C85.124 238.467 85.204 239.1 85.3506 239.66C85.4973 240.207 85.7373 240.64 86.0706 240.96C86.4173 241.267 86.8773 241.42 87.4506 241.42Z" fill="white"/>
<path d="M98.4239 243.66C97.5706 243.66 96.8306 243.547 96.2039 243.32C95.5772 243.08 95.0572 242.7 94.6439 242.18C94.2439 241.647 93.9372 240.953 93.7239 240.1C93.5239 239.247 93.4239 238.2 93.4239 236.96C93.4239 235.68 93.5239 234.593 93.7239 233.7C93.9372 232.807 94.2506 232.093 94.6639 231.56C95.0772 231.013 95.5906 230.62 96.2039 230.38C96.8306 230.14 97.5639 230.02 98.4039 230.02C99.2706 230.02 100.017 230.14 100.644 230.38C101.271 230.62 101.784 231.013 102.184 231.56C102.597 232.093 102.897 232.807 103.084 233.7C103.284 234.58 103.384 235.667 103.384 236.96C103.384 238.6 103.204 239.913 102.844 240.9C102.497 241.873 101.957 242.58 101.224 243.02C100.491 243.447 99.5572 243.66 98.4239 243.66ZM98.4239 241.34C98.7972 241.34 99.1172 241.28 99.3839 241.16C99.6639 241.027 99.8972 240.8 100.084 240.48C100.271 240.16 100.404 239.713 100.484 239.14C100.577 238.567 100.624 237.84 100.624 236.96C100.624 236.027 100.577 235.26 100.484 234.66C100.404 234.06 100.277 233.593 100.104 233.26C99.9306 232.913 99.7039 232.673 99.4239 232.54C99.1439 232.393 98.8106 232.32 98.4239 232.32C98.0372 232.32 97.7039 232.393 97.4239 232.54C97.1439 232.673 96.9106 232.907 96.7239 233.24C96.5506 233.573 96.4172 234.047 96.3239 234.66C96.2306 235.26 96.1839 236.033 96.1839 236.98C96.1839 237.86 96.2306 238.587 96.3239 239.16C96.4306 239.733 96.5772 240.18 96.7639 240.5C96.9506 240.807 97.1772 241.027 97.4439 241.16C97.7239 241.28 98.0506 241.34 98.4239 241.34Z" fill="white"/>
</g>
<defs>
<clipPath id="clip0_448_389">
<rect width="220" height="251" fill="white"/>
</clipPath>
</defs>
</svg>
