<svg width="220" height="251" viewBox="0 0 220 251" fill="none" xmlns="http://www.w3.org/2000/svg">
<path fill-rule="evenodd" clip-rule="evenodd" d="M150.514 250.79V243.167H212.378V156.786H220V250.79H150.514Z" fill="#EF4444"/>
<path fill-rule="evenodd" clip-rule="evenodd" d="M69.461 0V7.59688H7.59688V93.9785H0V0H69.461Z" fill="#EF4444"/>
<path fill-rule="evenodd" clip-rule="evenodd" d="M194.745 37.6074C201.568 37.6074 207.098 32.0769 207.098 25.2547C207.098 18.4325 201.568 12.902 194.745 12.902C187.923 12.902 182.393 18.4325 182.393 25.2547C182.393 32.0769 187.923 37.6074 194.745 37.6074ZM194.745 43.9274C205.058 43.9274 213.418 35.5674 213.418 25.2547C213.418 14.9421 205.058 6.58203 194.745 6.58203C184.433 6.58203 176.073 14.9421 176.073 25.2547C176.073 35.5674 184.433 43.9274 194.745 43.9274Z" fill="#EF4444"/>
<path d="M199.485 15.7747H189.431C187.451 15.7747 185.84 17.3856 185.84 19.3657V29.4202C185.84 29.8173 186.162 30.1384 186.558 30.1384C186.955 30.1384 187.276 29.8173 187.276 29.4202V27.9838H201.64V29.4202C201.64 29.8173 201.961 30.1384 202.358 30.1384C202.755 30.1384 203.076 29.8173 203.076 29.4202V19.3657C203.076 17.3856 201.465 15.7747 199.485 15.7747ZM189.431 17.2111H199.485C200.673 17.2111 201.64 18.1778 201.64 19.3657V23.6747H200.204C200.204 22.0904 198.915 20.802 197.331 20.802H196.613C195.755 20.802 194.985 21.1798 194.458 21.7766C193.931 21.1791 193.161 20.802 192.304 20.802H191.585C190.001 20.802 188.713 22.0904 188.713 23.6747H187.276V19.3657C187.276 18.1778 188.243 17.2111 189.431 17.2111ZM195.176 23.6747C195.176 22.8826 195.821 22.2384 196.613 22.2384H197.331C198.123 22.2384 198.767 22.8826 198.767 23.6747H195.176ZM190.149 23.6747C190.149 22.8826 190.793 22.2384 191.585 22.2384H192.304C193.096 22.2384 193.74 22.8826 193.74 23.6747H190.149ZM187.276 26.5475V25.1111H201.64V26.5475H187.276Z" fill="#EF4444"/>
<path d="M186.652 33.5856V33.14L187.693 32.176C187.781 32.0903 187.856 32.0132 187.916 31.9446C187.977 31.8761 188.023 31.809 188.054 31.7433C188.086 31.6766 188.101 31.6047 188.101 31.5276C188.101 31.4419 188.082 31.3681 188.043 31.3062C188.004 31.2434 187.95 31.1953 187.883 31.162C187.815 31.1277 187.739 31.1106 187.653 31.1106C187.563 31.1106 187.485 31.1287 187.419 31.1648C187.352 31.201 187.301 31.2529 187.264 31.3205C187.228 31.3881 187.21 31.4686 187.21 31.5619H186.623C186.623 31.3705 186.666 31.2043 186.753 31.0634C186.84 30.9225 186.961 30.8135 187.117 30.7364C187.273 30.6592 187.453 30.6207 187.657 30.6207C187.867 30.6207 188.049 30.6578 188.204 30.7321C188.36 30.8054 188.482 30.9073 188.568 31.0377C188.655 31.1682 188.698 31.3177 188.698 31.4862C188.698 31.5966 188.676 31.7056 188.633 31.8132C188.59 31.9208 188.513 32.0403 188.403 32.1717C188.292 32.3022 188.136 32.4588 187.936 32.6416L187.509 33.0601V33.0801H188.737V33.5856H186.652Z" fill="#EF4444"/>
<path d="M190.121 34.4083V31.3919H190.721V31.7604H190.748C190.775 31.7014 190.814 31.6414 190.864 31.5804C190.916 31.5186 190.982 31.4671 191.064 31.4262C191.147 31.3843 191.25 31.3634 191.373 31.3634C191.533 31.3634 191.68 31.4052 191.815 31.489C191.951 31.5719 192.059 31.6971 192.14 31.8647C192.22 32.0313 192.261 32.2403 192.261 32.4916C192.261 32.7363 192.221 32.9429 192.142 33.1115C192.064 33.279 191.958 33.4062 191.822 33.4928C191.688 33.5785 191.538 33.6213 191.371 33.6213C191.253 33.6213 191.153 33.6018 191.07 33.5628C190.988 33.5237 190.921 33.4747 190.868 33.4157C190.816 33.3557 190.776 33.2952 190.748 33.2343H190.73V34.4083H190.121ZM190.717 32.4888C190.717 32.6192 190.735 32.733 190.771 32.8301C190.807 32.9272 190.86 33.0029 190.928 33.0572C190.997 33.1105 191.08 33.1372 191.178 33.1372C191.277 33.1372 191.361 33.11 191.43 33.0558C191.498 33.0005 191.55 32.9244 191.585 32.8273C191.622 32.7292 191.64 32.6164 191.64 32.4888C191.64 32.3621 191.622 32.2507 191.587 32.1546C191.552 32.0584 191.5 31.9832 191.431 31.9289C191.363 31.8746 191.278 31.8475 191.178 31.8475C191.079 31.8475 190.996 31.8737 190.927 31.9261C190.859 31.9784 190.807 32.0527 190.771 32.1489C190.735 32.245 190.717 32.3583 190.717 32.4888Z" fill="#EF4444"/>
<path d="M193.275 30.6607V33.5856H192.667V30.6607H193.275Z" fill="#EF4444"/>
<path d="M194.388 33.6271C194.248 33.6271 194.123 33.6028 194.014 33.5542C193.904 33.5047 193.818 33.4319 193.754 33.3357C193.691 33.2386 193.659 33.1177 193.659 32.9729C193.659 32.8511 193.682 32.7487 193.727 32.6659C193.771 32.583 193.832 32.5164 193.909 32.4659C193.987 32.4155 194.074 32.3774 194.172 32.3517C194.271 32.326 194.375 32.3079 194.484 32.2974C194.611 32.2841 194.714 32.2717 194.792 32.2603C194.87 32.2479 194.927 32.2298 194.962 32.206C194.997 32.1822 195.015 32.147 195.015 32.1003V32.0917C195.015 32.0013 194.986 31.9313 194.929 31.8818C194.873 31.8323 194.793 31.8075 194.689 31.8075C194.58 31.8075 194.493 31.8318 194.428 31.8804C194.363 31.928 194.32 31.988 194.299 32.0603L193.737 32.0146C193.765 31.8813 193.821 31.7661 193.905 31.669C193.989 31.5709 194.097 31.4957 194.229 31.4433C194.363 31.39 194.517 31.3634 194.692 31.3634C194.814 31.3634 194.931 31.3776 195.042 31.4062C195.154 31.4348 195.254 31.479 195.34 31.539C195.428 31.599 195.497 31.6761 195.548 31.7704C195.598 31.8637 195.623 31.9756 195.623 32.106V33.5856H195.046V33.2814H195.029C194.994 33.35 194.947 33.4104 194.888 33.4628C194.829 33.5142 194.758 33.5547 194.675 33.5842C194.592 33.6128 194.496 33.6271 194.388 33.6271ZM194.562 33.2072C194.652 33.2072 194.731 33.1895 194.799 33.1543C194.868 33.1181 194.922 33.0696 194.961 33.0086C195 32.9477 195.019 32.8787 195.019 32.8016V32.5688C195 32.5811 194.974 32.5926 194.941 32.603C194.908 32.6126 194.872 32.6216 194.831 32.6302C194.79 32.6378 194.749 32.6449 194.708 32.6516C194.667 32.6573 194.63 32.6625 194.596 32.6673C194.525 32.6778 194.463 32.6944 194.409 32.7173C194.356 32.7401 194.315 32.7711 194.285 32.8101C194.255 32.8482 194.241 32.8958 194.241 32.9529C194.241 33.0358 194.271 33.0991 194.331 33.1429C194.392 33.1857 194.469 33.2072 194.562 33.2072Z" fill="#EF4444"/>
<path d="M197.086 33.6285C196.862 33.6285 196.668 33.5809 196.507 33.4857C196.346 33.3895 196.222 33.2562 196.135 33.0858C196.05 32.9153 196.007 32.7192 196.007 32.4973C196.007 32.2726 196.05 32.0756 196.137 31.9061C196.224 31.7356 196.349 31.6028 196.509 31.5076C196.67 31.4114 196.862 31.3634 197.084 31.3634C197.275 31.3634 197.443 31.3981 197.586 31.4676C197.73 31.5371 197.844 31.6347 197.928 31.7604C198.011 31.8861 198.058 32.0337 198.066 32.2031H197.492C197.476 32.0936 197.433 32.0056 197.364 31.9389C197.295 31.8713 197.205 31.8375 197.094 31.8375C196.999 31.8375 196.917 31.8632 196.846 31.9146C196.777 31.9651 196.723 32.0389 196.684 32.136C196.645 32.2331 196.625 32.3507 196.625 32.4888C196.625 32.6287 196.644 32.7478 196.682 32.8458C196.721 32.9439 196.776 33.0186 196.846 33.0701C196.917 33.1215 196.999 33.1472 197.094 33.1472C197.163 33.1472 197.225 33.1329 197.281 33.1043C197.337 33.0758 197.383 33.0343 197.419 32.9801C197.456 32.9249 197.481 32.8587 197.492 32.7816H198.066C198.057 32.9491 198.011 33.0967 197.929 33.2243C197.848 33.3509 197.736 33.45 197.593 33.5214C197.451 33.5928 197.282 33.6285 197.086 33.6285Z" fill="#EF4444"/>
<path d="M199.455 33.6285C199.23 33.6285 199.036 33.5828 198.873 33.4914C198.711 33.399 198.586 33.2686 198.499 33.1C198.411 32.9306 198.367 32.7301 198.367 32.4988C198.367 32.2731 198.411 32.0751 198.499 31.9046C198.586 31.7342 198.709 31.6014 198.868 31.5062C199.028 31.411 199.216 31.3634 199.431 31.3634C199.576 31.3634 199.711 31.3867 199.835 31.4333C199.961 31.479 200.071 31.5481 200.164 31.6404C200.258 31.7328 200.331 31.8489 200.384 31.9889C200.436 32.1279 200.462 32.2907 200.462 32.4773V32.6445H198.61V32.2674H199.89C199.89 32.1798 199.871 32.1022 199.833 32.0346C199.794 31.967 199.742 31.9142 199.674 31.8761C199.607 31.837 199.53 31.8175 199.441 31.8175C199.349 31.8175 199.267 31.8389 199.196 31.8818C199.125 31.9237 199.07 31.9803 199.03 32.0517C198.99 32.1222 198.969 32.2008 198.968 32.2874V32.6459C198.968 32.7544 198.988 32.8482 199.028 32.9272C199.069 33.0063 199.127 33.0672 199.201 33.11C199.276 33.1529 199.364 33.1743 199.465 33.1743C199.533 33.1743 199.595 33.1648 199.651 33.1457C199.707 33.1267 199.755 33.0981 199.795 33.0601C199.835 33.022 199.866 32.9753 199.887 32.9201L200.449 32.9572C200.421 33.0924 200.362 33.2105 200.274 33.3114C200.186 33.4114 200.073 33.4895 199.934 33.5456C199.796 33.6009 199.636 33.6285 199.455 33.6285Z" fill="#EF4444"/>
<path d="M202.685 32.0175L202.128 32.0517C202.118 32.0041 202.098 31.9613 202.066 31.9232C202.035 31.8842 201.993 31.8532 201.942 31.8304C201.891 31.8066 201.831 31.7947 201.761 31.7947C201.666 31.7947 201.587 31.8147 201.522 31.8547C201.457 31.8937 201.425 31.9461 201.425 32.0118C201.425 32.0641 201.446 32.1084 201.488 32.1446C201.53 32.1808 201.602 32.2098 201.703 32.2317L202.1 32.3117C202.314 32.3555 202.473 32.4259 202.578 32.5231C202.682 32.6202 202.735 32.7478 202.735 32.9058C202.735 33.0496 202.692 33.1757 202.607 33.2843C202.524 33.3928 202.409 33.4776 202.262 33.5385C202.116 33.5985 201.948 33.6285 201.758 33.6285C201.467 33.6285 201.236 33.568 201.064 33.4471C200.892 33.3252 200.792 33.1596 200.762 32.9501L201.361 32.9187C201.379 33.0072 201.423 33.0748 201.492 33.1215C201.562 33.1672 201.651 33.19 201.759 33.19C201.866 33.19 201.951 33.1696 202.016 33.1286C202.082 33.0867 202.115 33.0329 202.116 32.9672C202.115 32.912 202.092 32.8668 202.046 32.8315C202.001 32.7954 201.93 32.7678 201.835 32.7487L201.455 32.673C201.241 32.6302 201.081 32.5559 200.976 32.4502C200.873 32.3445 200.821 32.2098 200.821 32.046C200.821 31.9051 200.859 31.7837 200.935 31.6818C201.012 31.58 201.12 31.5014 201.259 31.4462C201.399 31.391 201.563 31.3634 201.751 31.3634C202.028 31.3634 202.246 31.4219 202.405 31.539C202.565 31.6561 202.658 31.8156 202.685 32.0175Z" fill="#EF4444"/>
</svg>
