<svg width="220" height="251" viewBox="0 0 220 251" fill="none" xmlns="http://www.w3.org/2000/svg">
<g clip-path="url(#clip0_448_389)">
<path fill-rule="evenodd" clip-rule="evenodd" d="M150.514 250.79V243.167H212.378V156.786H220V250.79H150.514Z" fill="#E60D54"/>
<path fill-rule="evenodd" clip-rule="evenodd" d="M69.461 0V7.59688H7.59688V93.9785H0V0H69.461Z" fill="#E60D54"/>
<path fill-rule="evenodd" clip-rule="evenodd" d="M194.672 37.6073C201.495 37.6073 207.025 32.0768 207.025 25.2546C207.025 18.4324 201.495 12.9019 194.672 12.9019C187.85 12.9019 182.32 18.4324 182.32 25.2546C182.32 32.0768 187.85 37.6073 194.672 37.6073ZM194.672 43.9273C204.985 43.9273 213.345 35.5673 213.345 25.2546C213.345 14.942 204.985 6.58191 194.672 6.58191C184.36 6.58191 176 14.942 176 25.2546C176 35.5673 184.36 43.9273 194.672 43.9273Z" fill="#E60D54"/>
<path d="M199.485 15.7746H189.431C187.451 15.7746 185.84 17.3855 185.84 19.3655V29.4201C185.84 29.8172 186.162 30.1382 186.558 30.1382C186.955 30.1382 187.276 29.8172 187.276 29.4201V27.9837H201.64V29.4201C201.64 29.8172 201.961 30.1382 202.358 30.1382C202.755 30.1382 203.076 29.8172 203.076 29.4201V19.3655C203.076 17.3855 201.465 15.7746 199.485 15.7746ZM189.431 17.211H199.485C200.673 17.211 201.64 18.1777 201.64 19.3655V23.6746H199.204C199.204 21.272 196.563 20 194.5 20C192.533 20 190.013 21.6028 190.013 23.6746H187.276V19.3655C187.276 18.1777 188.243 17.211 189.431 17.211ZM191.876 23.6746C191.876 22.9688 192.242 22.4429 192.753 22.0571C193.859 21.2215 195.498 21.1875 196.603 22.0237C197.116 22.4124 197.467 22.9483 197.467 23.6746H191.876ZM187.276 26.5473V25.111H201.64V26.5473H187.276Z" fill="#E60D54"/>
<path d="M0 223H60H90H111L120 251H0V223Z" fill="#E60D54"/>
<path d="M13 243.44V241.24H7V239.24L10 230.24H13.08L9.74 238.94H13L13.16 235.54L15.72 235.5V238.94H16.94V241.24H15.72V243.44H13Z" fill="white"/>
<path d="M18.6533 243.44V241.28L21.6733 238.18C22.2466 237.593 22.7399 237.08 23.1533 236.64C23.5666 236.187 23.8799 235.76 24.0933 235.36C24.32 234.96 24.4333 234.533 24.4333 234.08C24.4333 233.413 24.2466 232.967 23.8733 232.74C23.4999 232.5 22.8999 232.38 22.0733 232.38C21.7399 232.38 21.3733 232.4 20.9733 232.44C20.5733 232.48 20.1866 232.527 19.8133 232.58C19.4533 232.633 19.1399 232.687 18.8733 232.74L18.7333 230.62C19.0266 230.54 19.3866 230.453 19.8133 230.36C20.2533 230.267 20.7266 230.187 21.2333 230.12C21.7533 230.04 22.2599 230 22.7533 230C24.1933 230 25.2933 230.307 26.0533 230.92C26.8133 231.52 27.1933 232.453 27.1933 233.72C27.1933 234.413 27.0933 235.027 26.8933 235.56C26.7066 236.093 26.4066 236.607 25.9933 237.1C25.5933 237.58 25.0599 238.107 24.3933 238.68L21.7533 241.2H27.3733V243.44H18.6533Z" fill="white"/>
<path d="M38.602 243.44V233.2L35.482 235L34.562 233.02L38.942 230.24H41.322V243.44H38.602Z" fill="white"/>
<path d="M49.6953 243.66C49.1886 243.66 48.642 243.62 48.0553 243.54C47.4686 243.473 46.902 243.387 46.3553 243.28C45.8086 243.173 45.342 243.08 44.9553 243L45.1953 240.96C45.5553 241.013 45.982 241.08 46.4753 241.16C46.9686 241.227 47.4753 241.28 47.9953 241.32C48.5153 241.36 48.9886 241.38 49.4153 241.38C50.0953 241.38 50.6353 241.207 51.0353 240.86C51.4353 240.5 51.6353 239.98 51.6353 239.3C51.6353 238.833 51.5486 238.467 51.3753 238.2C51.2153 237.933 50.9753 237.747 50.6553 237.64C50.3486 237.52 49.9886 237.46 49.5753 237.46C49.2553 237.46 48.9353 237.493 48.6153 237.56C48.2953 237.613 47.9953 237.687 47.7153 237.78C47.4353 237.86 47.2086 237.947 47.0353 238.04L45.2353 237.76L45.5553 230.24H53.8153V232.66H47.7153L47.4553 235.6C47.642 235.52 47.8753 235.44 48.1553 235.36C48.4353 235.267 48.7353 235.187 49.0553 235.12C49.3886 235.053 49.7086 235.02 50.0153 235.02C50.9353 235.02 51.7153 235.147 52.3553 235.4C52.9953 235.653 53.482 236.073 53.8153 236.66C54.162 237.247 54.3353 238.047 54.3353 239.06C54.3353 240.113 54.142 240.98 53.7553 241.66C53.382 242.327 52.8486 242.827 52.1553 243.16C51.4753 243.493 50.6553 243.66 49.6953 243.66Z" fill="white"/>
<path d="M56.3486 243.44V241.28L59.3686 238.18C59.9419 237.593 60.4353 237.08 60.8486 236.64C61.2619 236.187 61.5753 235.76 61.7886 235.36C62.0153 234.96 62.1286 234.533 62.1286 234.08C62.1286 233.413 61.9419 232.967 61.5686 232.74C61.1953 232.5 60.5953 232.38 59.7686 232.38C59.4353 232.38 59.0686 232.4 58.6686 232.44C58.2686 232.48 57.8819 232.527 57.5086 232.58C57.1486 232.633 56.8353 232.687 56.5686 232.74L56.4286 230.62C56.7219 230.54 57.0819 230.453 57.5086 230.36C57.9486 230.267 58.4219 230.187 58.9286 230.12C59.4486 230.04 59.9553 230 60.4486 230C61.8886 230 62.9886 230.307 63.7486 230.92C64.5086 231.52 64.8886 232.453 64.8886 233.72C64.8886 234.413 64.7886 235.027 64.5886 235.56C64.4019 236.093 64.1019 236.607 63.6886 237.1C63.2886 237.58 62.7553 238.107 62.0886 238.68L59.4486 241.2H65.0686V243.44H56.3486Z" fill="white"/>
<path d="M76.2973 243.44V233.2L73.1773 235L72.2573 233.02L76.6373 230.24H79.0173V243.44H76.2973Z" fill="white"/>
<path d="M87.4506 243.66C85.7306 243.66 84.4706 243.067 83.6706 241.88C82.8706 240.693 82.4706 239.02 82.4706 236.86C82.4706 235.58 82.5973 234.507 82.8506 233.64C83.1173 232.76 83.484 232.06 83.9506 231.54C84.4306 231.007 84.9973 230.62 85.6506 230.38C86.304 230.14 87.024 230.02 87.8106 230.02C88.224 230.02 88.6706 230.047 89.1506 230.1C89.644 230.153 90.124 230.22 90.5906 230.3C91.0573 230.367 91.4506 230.433 91.7706 230.5L91.5506 232.56C91.2706 232.533 90.9173 232.5 90.4906 232.46C90.0773 232.42 89.644 232.387 89.1906 232.36C88.7373 232.32 88.304 232.3 87.8906 232.3C86.984 232.3 86.304 232.587 85.8506 233.16C85.3973 233.72 85.1573 234.527 85.1306 235.58C85.264 235.54 85.4306 235.493 85.6306 235.44C85.844 235.373 86.0706 235.307 86.3106 235.24C86.564 235.16 86.8173 235.1 87.0706 235.06C87.324 235.007 87.564 234.98 87.7906 234.98C89.2706 234.98 90.3773 235.327 91.1106 236.02C91.8573 236.7 92.2306 237.773 92.2306 239.24C92.2306 240.227 92.0373 241.047 91.6506 241.7C91.264 242.353 90.7173 242.847 90.0106 243.18C89.304 243.5 88.4506 243.66 87.4506 243.66ZM87.4506 241.42C88.184 241.42 88.7306 241.233 89.0906 240.86C89.464 240.473 89.6506 239.933 89.6506 239.24C89.6506 238.547 89.464 238.04 89.0906 237.72C88.7173 237.387 88.1906 237.22 87.5106 237.22C87.2306 237.22 86.9373 237.247 86.6306 237.3C86.324 237.353 86.0373 237.427 85.7706 237.52C85.504 237.6 85.284 237.68 85.1106 237.76C85.124 238.467 85.204 239.1 85.3506 239.66C85.4973 240.207 85.7373 240.64 86.0706 240.96C86.4173 241.267 86.8773 241.42 87.4506 241.42Z" fill="white"/>
<path d="M98.4239 243.66C97.5706 243.66 96.8306 243.547 96.2039 243.32C95.5772 243.08 95.0572 242.7 94.6439 242.18C94.2439 241.647 93.9372 240.953 93.7239 240.1C93.5239 239.247 93.4239 238.2 93.4239 236.96C93.4239 235.68 93.5239 234.593 93.7239 233.7C93.9372 232.807 94.2506 232.093 94.6639 231.56C95.0772 231.013 95.5906 230.62 96.2039 230.38C96.8306 230.14 97.5639 230.02 98.4039 230.02C99.2706 230.02 100.017 230.14 100.644 230.38C101.271 230.62 101.784 231.013 102.184 231.56C102.597 232.093 102.897 232.807 103.084 233.7C103.284 234.58 103.384 235.667 103.384 236.96C103.384 238.6 103.204 239.913 102.844 240.9C102.497 241.873 101.957 242.58 101.224 243.02C100.491 243.447 99.5572 243.66 98.4239 243.66ZM98.4239 241.34C98.7972 241.34 99.1172 241.28 99.3839 241.16C99.6639 241.027 99.8972 240.8 100.084 240.48C100.271 240.16 100.404 239.713 100.484 239.14C100.577 238.567 100.624 237.84 100.624 236.96C100.624 236.027 100.577 235.26 100.484 234.66C100.404 234.06 100.277 233.593 100.104 233.26C99.9306 232.913 99.7039 232.673 99.4239 232.54C99.1439 232.393 98.8106 232.32 98.4239 232.32C98.0372 232.32 97.7039 232.393 97.4239 232.54C97.1439 232.673 96.9106 232.907 96.7239 233.24C96.5506 233.573 96.4172 234.047 96.3239 234.66C96.2306 235.26 96.1839 236.033 96.1839 236.98C96.1839 237.86 96.2306 238.587 96.3239 239.16C96.4306 239.733 96.5772 240.18 96.7639 240.5C96.9506 240.807 97.1772 241.027 97.4439 241.16C97.7239 241.28 98.0506 241.34 98.4239 241.34Z" fill="white"/>
<path d="M190.721 34.4082V31.3918H191.321V31.7603H191.348C191.375 31.7012 191.414 31.6413 191.464 31.5803C191.516 31.5184 191.582 31.467 191.664 31.4261C191.747 31.3842 191.85 31.3632 191.973 31.3632C192.133 31.3632 192.28 31.4051 192.415 31.4889C192.551 31.5717 192.659 31.697 192.74 31.8645C192.82 32.0312 192.861 32.2401 192.861 32.4915C192.861 32.7362 192.821 32.9428 192.742 33.1113C192.664 33.2789 192.558 33.406 192.422 33.4927C192.288 33.5784 192.138 33.6212 191.971 33.6212C191.853 33.6212 191.753 33.6017 191.67 33.5627C191.588 33.5236 191.521 33.4746 191.468 33.4156C191.416 33.3556 191.376 33.2951 191.348 33.2342H191.33V34.4082H190.721ZM191.317 32.4887C191.317 32.6191 191.335 32.7329 191.371 32.83C191.407 32.9271 191.46 33.0028 191.528 33.0571C191.597 33.1104 191.68 33.1371 191.778 33.1371C191.877 33.1371 191.961 33.1099 192.03 33.0556C192.098 33.0004 192.15 32.9243 192.185 32.8271C192.222 32.7291 192.24 32.6162 192.24 32.4887C192.24 32.362 192.222 32.2506 192.187 32.1545C192.152 32.0583 192.1 31.9831 192.031 31.9288C191.963 31.8745 191.878 31.8474 191.778 31.8474C191.679 31.8474 191.596 31.8736 191.527 31.9259C191.459 31.9783 191.407 32.0526 191.371 32.1487C191.335 32.2449 191.317 32.3582 191.317 32.4887Z" fill="#E60D54"/>
<path d="M193.875 30.6606V33.5855H193.267V30.6606H193.875Z" fill="#E60D54"/>
<path d="M194.988 33.6269C194.848 33.6269 194.723 33.6026 194.614 33.5541C194.504 33.5046 194.418 33.4317 194.354 33.3356C194.291 33.2385 194.259 33.1175 194.259 32.9728C194.259 32.8509 194.282 32.7486 194.327 32.6658C194.371 32.5829 194.432 32.5163 194.509 32.4658C194.587 32.4153 194.674 32.3773 194.772 32.3515C194.871 32.3258 194.975 32.3077 195.084 32.2973C195.211 32.2839 195.314 32.2716 195.392 32.2601C195.47 32.2478 195.527 32.2297 195.562 32.2059C195.597 32.1821 195.615 32.1468 195.615 32.1002V32.0916C195.615 32.0012 195.586 31.9312 195.529 31.8817C195.473 31.8322 195.393 31.8074 195.289 31.8074C195.18 31.8074 195.093 31.8317 195.028 31.8802C194.963 31.9278 194.92 31.9878 194.899 32.0602L194.337 32.0145C194.365 31.8812 194.421 31.766 194.505 31.6689C194.589 31.5708 194.697 31.4956 194.829 31.4432C194.963 31.3899 195.117 31.3632 195.292 31.3632C195.414 31.3632 195.531 31.3775 195.642 31.4061C195.754 31.4346 195.854 31.4789 195.94 31.5389C196.028 31.5989 196.097 31.676 196.148 31.7703C196.198 31.8636 196.223 31.9755 196.223 32.1059V33.5855H195.646V33.2813H195.629C195.594 33.3499 195.547 33.4103 195.488 33.4627C195.429 33.5141 195.358 33.5546 195.275 33.5841C195.192 33.6126 195.096 33.6269 194.988 33.6269ZM195.162 33.207C195.252 33.207 195.331 33.1894 195.399 33.1542C195.468 33.118 195.522 33.0695 195.561 33.0085C195.6 32.9476 195.619 32.8786 195.619 32.8014V32.5686C195.6 32.581 195.574 32.5924 195.541 32.6029C195.508 32.6124 195.472 32.6215 195.431 32.63C195.39 32.6377 195.349 32.6448 195.308 32.6515C195.267 32.6572 195.23 32.6624 195.196 32.6672C195.125 32.6777 195.063 32.6943 195.009 32.7172C194.956 32.74 194.915 32.771 194.885 32.81C194.855 32.8481 194.841 32.8957 194.841 32.9528C194.841 33.0357 194.871 33.099 194.931 33.1428C194.992 33.1856 195.069 33.207 195.162 33.207Z" fill="#E60D54"/>
<path d="M197.686 33.6284C197.462 33.6284 197.268 33.5807 197.107 33.4855C196.946 33.3894 196.822 33.2561 196.735 33.0856C196.65 32.9152 196.607 32.7191 196.607 32.4972C196.607 32.2725 196.65 32.0754 196.737 31.9059C196.824 31.7355 196.949 31.6027 197.109 31.5075C197.27 31.4113 197.462 31.3632 197.684 31.3632C197.875 31.3632 198.043 31.398 198.186 31.4675C198.33 31.537 198.444 31.6346 198.528 31.7603C198.611 31.886 198.658 32.0335 198.666 32.203H198.092C198.076 32.0935 198.033 32.0054 197.964 31.9388C197.895 31.8712 197.805 31.8374 197.694 31.8374C197.599 31.8374 197.517 31.8631 197.446 31.9145C197.377 31.965 197.323 32.0388 197.284 32.1359C197.245 32.233 197.225 32.3506 197.225 32.4887C197.225 32.6286 197.244 32.7476 197.282 32.8457C197.321 32.9438 197.376 33.0185 197.446 33.0699C197.517 33.1213 197.599 33.1471 197.694 33.1471C197.763 33.1471 197.825 33.1328 197.881 33.1042C197.937 33.0756 197.983 33.0342 198.019 32.98C198.056 32.9247 198.081 32.8586 198.092 32.7814H198.666C198.657 32.949 198.611 33.0966 198.529 33.2242C198.448 33.3508 198.336 33.4498 198.193 33.5212C198.051 33.5927 197.882 33.6284 197.686 33.6284Z" fill="#E60D54"/>
<path d="M200.055 33.6284C199.83 33.6284 199.636 33.5827 199.473 33.4913C199.311 33.3989 199.186 33.2685 199.099 33.0999C199.011 32.9304 198.967 32.73 198.967 32.4987C198.967 32.273 199.011 32.075 199.099 31.9045C199.186 31.7341 199.309 31.6013 199.468 31.5061C199.628 31.4108 199.816 31.3632 200.031 31.3632C200.176 31.3632 200.311 31.3866 200.435 31.4332C200.561 31.4789 200.671 31.5479 200.764 31.6403C200.858 31.7327 200.931 31.8488 200.984 31.9888C201.036 32.1278 201.062 32.2906 201.062 32.4772V32.6443H199.21V32.2673H200.49C200.49 32.1797 200.471 32.1021 200.433 32.0345C200.394 31.9669 200.342 31.914 200.274 31.876C200.207 31.8369 200.13 31.8174 200.041 31.8174C199.949 31.8174 199.867 31.8388 199.796 31.8817C199.725 31.9236 199.67 31.9802 199.63 32.0516C199.59 32.1221 199.569 32.2006 199.568 32.2873V32.6458C199.568 32.7543 199.588 32.8481 199.628 32.9271C199.669 33.0061 199.727 33.0671 199.801 33.1099C199.876 33.1528 199.964 33.1742 200.065 33.1742C200.133 33.1742 200.195 33.1647 200.251 33.1456C200.307 33.1266 200.355 33.098 200.395 33.0599C200.435 33.0218 200.466 32.9752 200.487 32.92L201.049 32.9571C201.021 33.0923 200.962 33.2104 200.874 33.3113C200.786 33.4113 200.673 33.4893 200.534 33.5455C200.396 33.6007 200.236 33.6284 200.055 33.6284Z" fill="#E60D54"/>
<path d="M189.224 30.7001V33.6092H188.697V31.2129H188.68L188 31.6475V31.1646L188.723 30.7001H189.224Z" fill="#E60D54"/>
</g>
<defs>
<clipPath id="clip0_448_389">
<rect width="220" height="251" fill="white"/>
</clipPath>
</defs>
</svg>
